<?xml version="1.0" standalone="no"?><!DOCTYPE svg PUBLIC "-//W3C//DTD SVG 1.1//EN" "http://www.w3.org/Graphics/SVG/1.1/DTD/svg11.dtd"><svg t="1645461343323" class="icon" viewBox="0 0 1024 1024" version="1.1" xmlns="http://www.w3.org/2000/svg" p-id="7369" width="52" height="52" xmlns:xlink="http://www.w3.org/1999/xlink"><defs><style type="text/css"></style></defs><path d="M467.781818 800.581818h60.509091v146.618182h-60.509091z" fill="#1D6BED" p-id="7370"></path><path d="M649.309091 998.4H351.418182c-18.618182 0-34.909091-13.963636-34.909091-27.927273s16.290909-27.927273 34.909091-27.927272h295.563636c18.618182 0 34.909091 13.963636 34.909091 27.927272s-13.963636 27.927273-32.581818 27.927273zM498.036364 835.490909c-225.745455 0-395.636364-137.309091-395.636364-321.163636 0-16.290909 13.963636-27.927273 30.254545-27.927273s30.254545 11.636364 30.254546 27.927273c0 151.272727 144.290909 267.636364 335.127273 267.636363s335.127273-114.036364 335.127272-267.636363c0-16.290909 13.963636-27.927273 30.254546-27.927273s30.254545 11.636364 30.254545 27.927273c0 183.854545-169.890909 321.163636-395.636363 321.163636z" fill="#1D6BED" p-id="7371"></path><path d="M498.036364 726.109091c-139.636364 0-253.672727-88.436364-253.672728-195.490909V214.109091c0-107.054545 114.036364-195.490909 253.672728-195.490909s253.672727 88.436364 253.672727 195.490909v314.181818c0 111.709091-109.381818 197.818182-253.672727 197.818182z m0-651.636364c-104.727273 0-193.163636 65.163636-193.163637 139.636364v314.181818c0 76.8 88.436364 139.636364 193.163637 139.636364 107.054545 0 193.163636-62.836364 193.163636-139.636364V214.109091c0-76.8-86.109091-139.636364-193.163636-139.636364z" fill="#1D6BED" p-id="7372"></path><path d="M300.218182 297.890909h404.945454v55.854546H300.218182zM688.872727 260.654545h-144.290909c-18.618182 0-37.236364-13.963636-37.236363-27.927272s16.290909-27.927273 37.236363-27.927273h144.290909c18.618182 0 37.236364 13.963636 37.236364 27.927273 0 16.290909-16.290909 27.927273-37.236364 27.927272z" fill="#1D6BED" p-id="7373"></path></svg>